<svg xmlns="http://www.w3.org/2000/svg" viewBox="0 0 128 128" role="img" aria-labelledby="title desc">
  <title id="title">PPA-GOV Privacy Shield</title>
  <desc id="desc">A shield containing connected nodes and a keyhole, representing protected collaborative government analytics.</desc>
  <defs>
    <linearGradient id="g" x1="12" y1="8" x2="116" y2="120" gradientUnits="userSpaceOnUse">
      <stop stop-color="#FF6FB1"/><stop offset="1" stop-color="#E83E8C"/>
    </linearGradient>
  </defs>
  <path d="M64 7 111 25v35c0 29-18 49-47 60C35 109 17 89 17 60V25L64 7Z" fill="url(#g)"/>
  <path d="M64 19 99 32v28c0 21-12 37-35 47-23-10-35-26-35-47V32l35-13Z" fill="#0B0F16" opacity=".78"/>
  <circle cx="64" cy="51" r="10" fill="#FFF1F8"/>
  <path d="M58 58h12l-3.2 22h-5.6L58 58Z" fill="#FFF1F8"/>
  <circle cx="40" cy="38" r="4" fill="#E83E8C"/><circle cx="88" cy="38" r="4" fill="#FF6FB1"/>
  <path d="M44 40 56 48M84 40 72 48" stroke="#FFF1F8" stroke-width="3" stroke-linecap="round" opacity=".8"/>
</svg>
